name D:\school\WTK\thesis\model\3dpredictsim\Results\MidTarsalJoint\Fal_s1_bCst_PF_Natali2010_ls150_MT_k50_MTP_T2_ig24.mot
datacolumns 128
datarows 4
range 0.00000000 0.03552464
endheader
time	pelvis_tilt	pelvis_list	pelvis_rotation	pelvis_tx	pelvis_ty	pelvis_tz	hip_flexion_l	hip_adduction_l	hip_rotation_l	hip_flexion_r	hip_adduction_r	hip_rotation_r	knee_angle_l	knee_angle_r	ankle_angle_l	ankle_angle_r	subtalar_angle_l	subtalar_angle_r	mtj_angle_l	mtj_angle_r	mtp_angle_l	mtp_angle_r	lumbar_extension	lumbar_bending	lumbar_rotation	arm_flex_l	arm_add_l	arm_rot_l	arm_flex_r	arm_add_r	arm_rot_r	elbow_flex_l	elbow_flex_r	pro_sup_l	pro_sup_r	glut_med1_l/activation	glut_med2_l/activation	glut_med3_l/activation	glut_min1_l/activation	glut_min2_l/activation	glut_min3_l/activation	semimem_l/activation	semiten_l/activation	bifemlh_l/activation	bifemsh_l/activation	sar_l/activation	add_long_l/activation	add_brev_l/activation	add_mag1_l/activation	add_mag2_l/activation	add_mag3_l/activation	tfl_l/activation	pect_l/activation	grac_l/activation	glut_max1_l/activation	glut_max2_l/activation	glut_max3_l/activation	iliacus_l/activation	psoas_l/activation	quad_fem_l/activation	gem_l/activation	peri_l/activation	rect_fem_l/activation	vas_med_l/activation	vas_int_l/activation	vas_lat_l/activation	med_gas_l/activation	lat_gas_l/activation	soleus_l/activation	tib_post_l/activation	flex_dig_l/activation	flex_hal_l/activation	tib_ant_l/activation	per_brev_l/activation	per_long_l/activation	per_tert_l/activation	ext_dig_l/activation	ext_hal_l/activation	ercspn_l/activation	intobl_l/activation	extobl_l/activation	glut_med1_r/activation	glut_med2_r/activation	glut_med3_r/activation	glut_min1_r/activation	glut_min2_r/activation	glut_min3_r/activation	semimem_r/activation	semiten_r/activation	bifemlh_r/activation	bifemsh_r/activation	sar_r/activation	add_long_r/activation	add_brev_r/activation	add_mag1_r/activation	add_mag2_r/activation	add_mag3_r/activation	tfl_r/activation	pect_r/activation	grac_r/activation	glut_max1_r/activation	glut_max2_r/activation	glut_max3_r/activation	iliacus_r/activation	psoas_r/activation	quad_fem_r/activation	gem_r/activation	peri_r/activation	rect_fem_r/activation	vas_med_r/activation	vas_int_r/activation	vas_lat_r/activation	med_gas_r/activation	lat_gas_r/activation	soleus_r/activation	tib_post_r/activation	flex_dig_r/activation	flex_hal_r/activation	tib_ant_r/activation	per_brev_r/activation	per_long_r/activation	per_tert_r/activation	ext_dig_r/activation	ext_hal_r/activation	ercspn_r/activation	intobl_r/activation	extobl_r/activation	
          0.00000000	         -2.93015296	         -2.39925014	          6.77457569	          0.00000000	          0.91630414	         -0.00230947	        -15.95853596	         -2.10719400	          6.30867575	         28.83671778	          3.48622201	         -1.93242721	        -11.39135406	         -9.12659398	         -5.94179538	          5.38424304	         13.20707175	         -7.94196101	         12.13859300	         -0.25928185	         -0.54404937	         -0.83346024	         -1.56630183	          0.41958926	         -2.70418757	          4.70220648	        -13.45440324	         15.48862513	         -8.04690459	        -13.52371134	          5.10628147	         40.12928165	         17.75621936	         86.51662706	         86.51662706	          0.17927163	          0.09199003	          0.05961721	          0.19598110	          0.15634665	          0.10277271	          0.05000920	          0.05000127	          0.05000121	          0.05000045	          0.09945857	          0.06457265	          0.05001250	          0.05986863	          0.05984288	          0.05986824	          0.26188422	          0.05001941	          0.05002879	          0.05002388	          0.05001802	          0.05006291	          0.38569692	          0.62871831	          0.05003051	          0.05985166	          0.05473435	          0.29635651	          0.08491128	          0.12293204	          0.13419425	          0.24575842	          0.33006274	          0.35419448	          0.21914352	          0.15021995	          0.21628059	          0.05000016	          0.05907920	          0.18738053	          0.05000047	          0.05000016	          0.05000065	          0.05000018	          0.07168343	          0.07168345	          0.05000003	          0.05000008	          0.07014719	          0.05000009	          0.05000010	          0.05000012	          0.19377405	          0.09314044	          0.12221252	          0.07622782	          0.05991943	          0.12319592	          0.28173017	          0.28674820	          0.17979926	          0.09701851	          0.05000036	          0.07185309	          0.13596974	          0.05000092	          0.10287575	          0.14048458	          0.05000250	          0.07168339	          0.52706299	          0.20922171	          0.07988606	          0.05986859	          0.05986855	          0.05986858	          0.05986840	          0.06956337	          0.07168338	          0.06304436	          0.05986765	          0.05001591	          0.05986617	          0.42139092	          0.18825748	          0.22975920	          0.15517366	          0.39315000	          0.19111350	          0.05000001	          0.10854023	          0.09223712	
          0.01184155	         -2.92906931	         -2.48386964	          7.07410932	          0.01823841	          0.91517795	         -0.00214514	        -16.03629072	         -2.44973277	          6.10957318	         28.11630047	          3.76497046	         -1.63578523	        -12.97599341	         -9.82431592	         -6.29922858	          4.73919040	         13.97294968	         -8.21269154	         10.58580335	         -0.47545364	          0.76254144	         -0.74014345	         -1.32600195	          0.60220290	         -2.77269857	          4.37296126	        -13.45543876	         15.83172191	         -9.02219430	        -13.51613883	          5.18361253	         41.32062714	         17.27883346	         86.51662706	         86.51662706	          0.26491600	          0.07685943	          0.06256102	          0.26952766	          0.13057697	          0.08583306	          0.05000125	          0.05000022	          0.05000019	          0.05000029	          0.08583091	          0.05392935	          0.05000070	          0.05000099	          0.05000110	          0.05000091	          0.28603849	          0.05002130	          0.05000107	          0.05000687	          0.05000252	          0.05000121	          0.34203480	          0.61473454	          0.05000078	          0.05000220	          0.05000474	          0.25292744	          0.12425010	          0.10267252	          0.11207705	          0.20525041	          0.27565901	          0.30527626	          0.18556913	          0.12545968	          0.18063164	          0.05000002	          0.11166217	          0.19216073	          0.05000020	          0.05000007	          0.05000021	          0.05000006	          0.05986795	          0.05986798	          0.22299693	          0.20595547	          0.21374244	          0.26966836	          0.18978618	          0.17663121	          0.16183458	          0.07875088	          0.10206848	          0.08578340	          0.05004338	          0.10288976	          0.23529304	          0.23948400	          0.15016347	          0.11771763	          0.05000041	          0.06001021	          0.11355927	          0.05000080	          0.12211415	          0.11733033	          0.05099933	          0.05986797	          0.44018795	          0.17473609	          0.17373992	          0.05000055	          0.05000058	          0.05000060	          0.05000044	          0.05809735	          0.05986794	          0.05265286	          0.05000007	          0.05000037	          0.05000036	          0.49792994	          0.32855295	          0.19188840	          0.33807616	          0.49474493	          0.17445758	          0.05000014	          0.14432419	          0.07703381	
          0.02368309	         -2.92647166	         -2.56693826	          7.32674906	          0.03660119	          0.91417285	         -0.00195633	        -16.05538108	         -2.78490359	          5.92936040	         27.38871037	          4.01329231	         -1.34446749	        -14.61664676	        -10.48561391	         -6.70518951	          4.00372083	         14.65782353	         -8.47415231	          8.63119611	         -0.39573672	          2.61179649	         -0.68515129	         -1.08891880	          0.79522789	         -2.83114478	          3.99588188	        -13.45880063	         16.12404162	         -9.96933519	        -13.50892045	          5.31709013	         42.43879823	         16.82540683	         86.51662706	         86.51662706	          0.23794614	          0.06419112	          0.05950844	          0.23306065	          0.10905438	          0.07168544	          0.05000163	          0.05000019	          0.05000017	          0.05000034	          0.07168664	          0.05000025	          0.05000020	          0.05000029	          0.05000068	          0.05000036	          0.23889157	          0.05000110	          0.05000090	          0.05000852	          0.05000237	          0.05000083	          0.28565789	          0.59402084	          0.05000048	          0.05000309	          0.05000107	          0.21123780	          0.10377391	          0.14339176	          0.14202576	          0.17141927	          0.23022253	          0.25495799	          0.15498210	          0.10478047	          0.15085850	          0.05000068	          0.09325740	          0.20007899	          0.05000079	          0.07880009	          0.05000072	          0.06022577	          0.05000002	          0.05000006	          0.31198219	          0.31564505	          0.33719475	          0.22521967	          0.20188417	          0.22522865	          0.13515963	          0.06577083	          0.08524473	          0.07164394	          0.05000057	          0.08593062	          0.19651005	          0.20001034	          0.12541267	          0.13859780	          0.05000073	          0.05011919	          0.09484173	          0.19783435	          0.17688450	          0.13814197	          0.05000007	          0.05000013	          0.36763242	          0.14593468	          0.14510311	          0.05000012	          0.07695628	          0.08570641	          0.07209607	          0.05000003	          0.05000011	          0.05000001	          0.05000023	          0.05000038	          0.05000038	          0.57358342	          0.32202584	          0.20763096	          0.42458152	          0.51666051	          0.29429709	          0.06990184	          0.12053545	          0.06433644	
          0.03552464	         -2.92279470	         -2.64470666	          7.53275545	          0.05492471	          0.91342080	         -0.00173751	        -15.98311797	         -3.10232178	          5.76791616	         26.72531746	          4.27424264	         -1.06568896	        -16.33028958	        -11.24477364	         -7.21151564	          3.27548414	         15.25286028	         -8.73458716	          6.28844767	         -0.43511058	          4.96037454	         -0.66442599	         -0.86634582	          0.99762944	         -2.88079592	          3.60945159	        -13.46223000	         16.40419107	        -10.85722128	        -13.49815490	          5.47803984	         43.43319863	         16.38794495	         86.51662706	         86.51662706	          0.23724331	          0.05361071	          0.05000019	          0.19464604	          0.09107920	          0.05986972	          0.05000172	          0.05000023	          0.05000025	          0.05000016	          0.05987090	          0.05569796	          0.05002137	          0.05000462	          0.05000399	          0.05000892	          0.19951558	          0.05925010	          0.05000097	          0.05000312	          0.05000183	          0.05000135	          0.23857333	          0.54964155	          0.05000037	          0.05000118	          0.05000033	          0.17641977	          0.12305276	          0.12305269	          0.11862184	          0.14316447	          0.19227528	          0.21293362	          0.12943665	          0.08750975	          0.12599278	          0.08498245	          0.13728543	          0.17699680	          0.05000169	          0.13536266	          0.05000293	          0.08014604	          0.05000002	          0.05000004	          0.38087466	          0.36713788	          0.38283155	          0.21155628	          0.16862911	          0.19097310	          0.11288150	          0.07124390	          0.07542217	          0.05983513	          0.05000053	          0.07176686	          0.16411976	          0.16704498	          0.17514776	          0.17022885	          0.05000032	          0.05000737	          0.08317052	          0.24021479	          0.21042387	          0.17772694	          0.05000015	          0.05000013	          0.30703612	          0.12188057	          0.13800728	          0.05000008	          0.13422697	          0.14214351	          0.11496737	          0.05000004	          0.05000009	          0.05000001	          0.05000003	          0.05000020	          0.05000017	          0.60843335	          0.26894696	          0.17340754	          0.46570281	          0.54946863	          0.29995684	          0.07976514	          0.10066777	          0.05373197	
